<mxfile host="app.diagrams.net" modified="2023-07-16T21:13:59.465Z" agent="Mozilla/5.0 (Windows NT 10.0; Win64; x64) AppleWebKit/537.36 (KHTML, like Gecko) Chrome/114.0.0.0 Safari/537.36" version="21.6.2" etag="g01Qegtl3K7Kh1uyCFuH" type="github">
  <diagram name="PÃ¡gina-1" id="CmiuT9l2lf0Iu-U15lov">
    <mxGraphModel>
      <root>
        <mxCell id="0" />
        <mxCell id="1" parent="0" />
      </root>
    </mxGraphModel>
  </diagram>
</mxfile>
